<?xml version="1.0" encoding="utf-8" standalone="no"?>
<!DOCTYPE svg PUBLIC "-//W3C//DTD SVG 1.1//EN"
  "http://www.w3.org/Graphics/SVG/1.1/DTD/svg11.dtd">
<svg xmlns:xlink="http://www.w3.org/1999/xlink" width="432pt" height="432pt" viewBox="0 0 432 432" xmlns="http://www.w3.org/2000/svg" version="1.1">
 <metadata>
  <rdf:RDF xmlns:dc="http://purl.org/dc/elements/1.1/" xmlns:cc="http://creativecommons.org/ns#" xmlns:rdf="http://www.w3.org/1999/02/22-rdf-syntax-ns#">
   <cc:Work>
    <dc:type rdf:resource="http://purl.org/dc/dcmitype/StillImage"/>
    <dc:date>2026-02-15T12:02:15.966027</dc:date>
    <dc:format>image/svg+xml</dc:format>
    <dc:creator>
     <cc:Agent>
      <dc:title>Matplotlib v3.7.5, https://matplotlib.org/</dc:title>
     </cc:Agent>
    </dc:creator>
   </cc:Work>
  </rdf:RDF>
 </metadata>
 <defs>
  <style type="text/css">*{stroke-linejoin: round; stroke-linecap: butt}</style>
 </defs>
 <g id="figure_1">
  <g id="patch_1">
   <path d="M 0 432 
L 432 432 
L 432 0 
L 0 0 
L 0 432 
z
" style="fill: none"/>
  </g>
  <g id="axes_1">
   <g id="patch_2">
    <path d="M 103.68 406.08 
L 328.32 406.08 
Q 406.08 406.08 406.08 328.32 
L 406.08 103.68 
Q 406.08 25.92 328.32 25.92 
L 103.68 25.92 
Q 25.92 25.92 25.92 103.68 
L 25.92 328.32 
Q 25.92 406.08 103.68 406.08 
z
" clip-path="url(#ped34bdc755)" style="fill: #0b1020"/>
   </g>
   <g id="patch_3">
    <path d="M 216 216 
C 232.039483 216 247.424191 209.627446 258.765818 198.285818 
C 270.107446 186.944191 276.48 171.559483 276.48 155.52 
C 276.48 139.480517 270.107446 124.095809 258.765818 112.754182 
C 247.424191 101.412554 232.039483 95.04 216 95.04 
C 199.960517 95.04 184.575809 101.412554 173.234182 112.754182 
C 161.892554 124.095809 155.52 139.480517 155.52 155.52 
C 155.52 171.559483 161.892554 186.944191 173.234182 198.285818 
C 184.575809 209.627446 199.960517 216 216 216 
z
" clip-path="url(#ped34bdc755)" style="fill: #f2c28b; stroke: #e9ecff; stroke-width: 0.028; stroke-linejoin: miter"/>
   </g>
   <g id="patch_4">
    <path d="M 198.72 164.16 
C 205.594064 164.16 212.18751 161.884088 217.048208 157.833506 
C 221.908905 153.782925 224.64 148.288387 224.64 142.56 
C 224.64 136.831613 221.908905 131.337075 217.048208 127.286494 
C 212.18751 123.235912 205.594064 120.96 198.72 120.96 
C 191.845936 120.96 185.25249 123.235912 180.391792 127.286494 
C 175.531095 131.337075 172.8 136.831613 172.8 142.56 
C 172.8 148.288387 175.531095 153.782925 180.391792 157.833506 
C 185.25249 161.884088 191.845936 164.16 198.72 164.16 
z
" clip-path="url(#ped34bdc755)" style="fill: #ffffff; fill-opacity: 0.12"/>
   </g>
   <g id="patch_5">
    <path d="M 228.96 198.72 
C 239.271097 198.72 249.161265 195.988905 256.452312 191.128208 
C 263.743358 186.26751 267.84 179.674064 267.84 172.8 
C 267.84 165.925936 263.743358 159.33249 256.452312 154.471792 
C 249.161265 149.611095 239.271097 146.88 228.96 146.88 
C 218.648903 146.88 208.758735 149.611095 201.467688 154.471792 
C 194.176642 159.33249 190.08 165.925936 190.08 172.8 
C 190.08 179.674064 194.176642 186.26751 201.467688 191.128208 
C 208.758735 195.988905 218.648903 198.72 228.96 198.72 
z
" clip-path="url(#ped34bdc755)" style="fill-opacity: 0.08"/>
   </g>
   <g id="patch_6">
    <path d="M 155.52 168.48 
C 157.811355 168.48 160.00917 167.114453 161.629403 164.684104 
C 163.249635 162.253755 164.16 158.957032 164.16 155.52 
C 164.16 152.082968 163.249635 148.786245 161.629403 146.355896 
C 160.00917 143.925547 157.811355 142.56 155.52 142.56 
C 153.228645 142.56 151.03083 143.925547 149.410597 146.355896 
C 147.790365 148.786245 146.88 152.082968 146.88 155.52 
C 146.88 158.957032 147.790365 162.253755 149.410597 164.684104 
C 151.03083 167.114453 153.228645 168.48 155.52 168.48 
z
" clip-path="url(#ped34bdc755)" style="fill: #f2c28b; stroke: #e9ecff; stroke-width: 0.0224; stroke-linejoin: miter"/>
   </g>
   <g id="patch_7">
    <path d="M 276.48 168.48 
C 278.771355 168.48 280.96917 167.114453 282.589403 164.684104 
C 284.209635 162.253755 285.12 158.957032 285.12 155.52 
C 285.12 152.082968 284.209635 148.786245 282.589403 146.355896 
C 280.96917 143.925547 278.771355 142.56 276.48 142.56 
C 274.188645 142.56 271.99083 143.925547 270.370597 146.355896 
C 268.750365 148.786245 267.84 152.082968 267.84 155.52 
C 267.84 158.957032 268.750365 162.253755 270.370597 164.684104 
C 271.99083 167.114453 274.188645 168.48 276.48 168.48 
z
" clip-path="url(#ped34bdc755)" style="fill: #f2c28b; stroke: #e9ecff; stroke-width: 0.0224; stroke-linejoin: miter"/>
   </g>
   <g id="patch_8">
    <path d="M 159.84 133.92 
Q 172.8 86.4 216 73.44 
Q 259.2 86.4 272.16 133.92 
Q 263.52 116.64 237.6 103.68 
Q 216 99.36 194.4 103.68 
Q 168.48 116.64 0.37 0.69 
" clip-path="url(#ped34bdc755)" style="fill: #2b2f43; stroke: #e9ecff; stroke-width: 0.0196; stroke-linejoin: miter"/>
   </g>
   <g id="patch_9">
    <path d="M 198.72 120.96 
C 209.031097 120.96 218.921265 118.684088 226.212312 114.633506 
C 233.503358 110.582925 237.6 105.088387 237.6 99.36 
C 237.6 93.631613 233.503358 88.137075 226.212312 84.086494 
C 218.921265 80.035912 209.031097 77.76 198.72 77.76 
C 188.408903 77.76 178.518735 80.035912 171.227688 84.086494 
C 163.936642 88.137075 159.84 93.631613 159.84 99.36 
C 159.84 105.088387 163.936642 110.582925 171.227688 114.633506 
C 178.518735 118.684088 188.408903 120.96 198.72 120.96 
z
" clip-path="url(#ped34bdc755)" style="fill: #ffffff; fill-opacity: 0.1"/>
   </g>
   <g id="patch_10">
    <path d="M 198.72 157.68 
C 199.865677 157.68 200.964585 157.224818 201.774701 156.414701 
C 202.584818 155.604585 203.04 154.505677 203.04 153.36 
C 203.04 152.214323 202.584818 151.115415 201.774701 150.305299 
C 200.964585 149.495182 199.865677 149.04 198.72 149.04 
C 197.574323 149.04 196.475415 149.495182 195.665299 150.305299 
C 194.855182 151.115415 194.4 152.214323 194.4 153.36 
C 194.4 154.505677 194.855182 155.604585 195.665299 156.414701 
C 196.475415 157.224818 197.574323 157.68 198.72 157.68 
z
" clip-path="url(#ped34bdc755)" style="fill: #2b2f43"/>
   </g>
   <g id="patch_11">
    <path d="M 233.28 157.68 
C 234.425677 157.68 235.524585 157.224818 236.334701 156.414701 
C 237.144818 155.604585 237.6 154.505677 237.6 153.36 
C 237.6 152.214323 237.144818 151.115415 236.334701 150.305299 
C 235.524585 149.495182 234.425677 149.04 233.28 149.04 
C 232.134323 149.04 231.035415 149.495182 230.225299 150.305299 
C 229.415182 151.115415 228.96 152.214323 228.96 153.36 
C 228.96 154.505677 229.415182 155.604585 230.225299 156.414701 
C 231.035415 157.224818 232.134323 157.68 233.28 157.68 
z
" clip-path="url(#ped34bdc755)" style="fill: #2b2f43"/>
   </g>
   <g id="patch_12">
    <path d="M 198.72 174.96 
C 204.448387 174.96 209.942925 172.684088 213.993506 168.633506 
C 218.044088 164.582925 220.32 159.088387 220.32 153.36 
C 220.32 147.631613 218.044088 142.137075 213.993506 138.086494 
C 209.942925 134.035912 204.448387 131.76 198.72 131.76 
C 192.991613 131.76 187.497075 134.035912 183.446494 138.086494 
C 179.395912 142.137075 177.12 147.631613 177.12 153.36 
C 177.12 159.088387 179.395912 164.582925 183.446494 168.633506 
C 187.497075 172.684088 192.991613 174.96 198.72 174.96 
L 198.72 174.96 
z
" clip-path="url(#ped34bdc755)" style="fill: none; stroke: #e9ecff; stroke-width: 0.0252; stroke-linejoin: miter"/>
   </g>
   <g id="patch_13">
    <path d="M 233.28 174.96 
C 239.008387 174.96 244.502925 172.684088 248.553506 168.633506 
C 252.604088 164.582925 254.88 159.088387 254.88 153.36 
C 254.88 147.631613 252.604088 142.137075 248.553506 138.086494 
C 244.502925 134.035912 239.008387 131.76 233.28 131.76 
C 227.551613 131.76 222.057075 134.035912 218.006494 138.086494 
C 213.955912 142.137075 211.68 147.631613 211.68 153.36 
C 211.68 159.088387 213.955912 164.582925 218.006494 168.633506 
C 222.057075 172.684088 227.551613 174.96 233.28 174.96 
L 233.28 174.96 
z
" clip-path="url(#ped34bdc755)" style="fill: none; stroke: #e9ecff; stroke-width: 0.0252; stroke-linejoin: miter"/>
   </g>
   <g id="patch_14">
    <path d="M 203.04 237.6 
L 228.96 237.6 
Q 237.6 237.6 237.6 228.96 
L 237.6 211.68 
Q 237.6 203.04 228.96 203.04 
L 203.04 203.04 
Q 194.4 203.04 194.4 211.68 
L 194.4 228.96 
Q 194.4 237.6 203.04 237.6 
z
" clip-path="url(#ped34bdc755)" style="fill: #e8ae73; stroke: #e9ecff; stroke-width: 0.0196; stroke-linejoin: miter"/>
   </g>
   <g id="patch_15">
    <path d="M 133.92 349.92 
L 298.08 349.92 
Q 341.28 349.92 341.28 306.72 
L 341.28 254.88 
Q 341.28 211.68 298.08 211.68 
L 133.92 211.68 
Q 90.72 211.68 90.72 254.88 
L 90.72 306.72 
Q 90.72 349.92 133.92 349.92 
z
" clip-path="url(#ped34bdc755)" style="fill: #121b36; stroke: #e9ecff; stroke-width: 0.028; stroke-linejoin: miter"/>
   </g>
   <g id="patch_16">
    <path d="M 164.16 319.68 
C 184.209354 319.68 203.440238 315.128175 217.617273 307.027013 
C 231.794307 298.92585 239.76 287.936774 239.76 276.48 
C 239.76 265.023226 231.794307 254.03415 217.617273 245.932987 
C 203.440238 237.831825 184.209354 233.28 164.16 233.28 
C 144.110646 233.28 124.879762 237.831825 110.702727 245.932987 
C 96.525693 254.03415 88.56 265.023226 88.56 276.48 
C 88.56 287.936774 96.525693 298.92585 110.702727 307.027013 
C 124.879762 315.128175 144.110646 319.68 164.16 319.68 
z
" clip-path="url(#ped34bdc755)" style="fill: #ffffff; fill-opacity: 0.07"/>
   </g>
   <g id="patch_17">
    <path d="M 216 233.28 
L 181.44 241.92 
L 216 311.04 
L 250.56 241.92 
z
" clip-path="url(#ped34bdc755)" style="fill: #e9ecff; opacity: 0.22"/>
   </g>
   <g id="patch_18">
    <path d="M 216 250.56 
L 203.04 285.12 
L 216 336.96 
L 228.96 285.12 
z
" clip-path="url(#ped34bdc755)" style="fill: #2ee59d; opacity: 0.95"/>
   </g>
   <g id="patch_19">
    <path d="M 216 260.064 
C 217.374813 260.064 218.693502 259.517781 219.665642 258.545642 
C 220.637781 257.573502 221.184 256.254813 221.184 254.88 
C 221.184 253.505187 220.637781 252.186498 219.665642 251.214358 
C 218.693502 250.242219 217.374813 249.696 216 249.696 
C 214.625187 249.696 213.306498 250.242219 212.334358 251.214358 
C 211.362219 252.186498 210.816 253.505187 210.816 254.88 
C 210.816 256.254813 211.362219 257.573502 212.334358 258.545642 
C 213.306498 259.517781 214.625187 260.064 216 260.064 
z
" clip-path="url(#ped34bdc755)" style="fill: #ffffff; fill-opacity: 0.35"/>
   </g>
   <g id="patch_20">
    <path d="M 324 289.44 
C 332.019742 289.44 339.712095 286.253723 345.382909 280.582909 
C 351.053723 274.912095 354.24 267.219742 354.24 259.2 
C 354.24 251.180258 351.053723 243.487905 345.382909 237.817091 
C 339.712095 232.146277 332.019742 228.96 324 228.96 
C 315.980258 228.96 308.287905 232.146277 302.617091 237.817091 
C 296.946277 243.487905 293.76 251.180258 293.76 259.2 
C 293.76 267.219742 296.946277 274.912095 302.617091 280.582909 
C 308.287905 286.253723 315.980258 289.44 324 289.44 
z
" clip-path="url(#ped34bdc755)" style="fill: #2ee59d; fill-opacity: 0.12; stroke: #ffffff; stroke-opacity: 0.1; stroke-width: 0.0168; stroke-linejoin: miter"/>
   </g>
   <g id="patch_21">
    <path d="M 332.64 280.8 
L 354.24 280.8 
Q 358.56 280.8 358.56 276.48 
L 358.56 265.68 
Q 358.56 261.36 354.24 261.36 
L 332.64 261.36 
Q 328.32 261.36 328.32 265.68 
L 328.32 276.48 
Q 328.32 280.8 332.64 280.8 
z
" clip-path="url(#ped34bdc755)" style="fill: #e9ecff; opacity: 0.85"/>
   </g>
   <g id="line2d_1">
    <path d="M 213.84 153.36 
L 218.16 153.36 
" clip-path="url(#ped34bdc755)" style="fill: none; stroke: #e9ecff; stroke-width: 0.0224; stroke-linecap: round"/>
   </g>
   <g id="line2d_2">
    <path d="M 185.76 133.92 
L 211.68 131.76 
" clip-path="url(#ped34bdc755)" style="fill: none; stroke: #39405c; stroke-opacity: 0.8; stroke-width: 0.0252; stroke-linecap: round"/>
   </g>
   <g id="line2d_3">
    <path d="M 220.32 131.76 
L 246.24 133.92 
" clip-path="url(#ped34bdc755)" style="fill: none; stroke: #39405c; stroke-opacity: 0.8; stroke-width: 0.0252; stroke-linecap: round"/>
   </g>
   <g id="line2d_4">
    <path d="M 222.48 164.16 
L 218.16 172.8 
" clip-path="url(#ped34bdc755)" style="fill: none; stroke: #000000; stroke-opacity: 0.18; stroke-width: 0.0252; stroke-linecap: round"/>
   </g>
   <g id="line2d_5">
    <path d="M 203.04 185.76 
L 228.96 187.92 
" clip-path="url(#ped34bdc755)" style="fill: none; stroke: #d48e7b; stroke-opacity: 0.85; stroke-width: 0.0308; stroke-linecap: round"/>
   </g>
   <g id="line2d_6">
    <path d="M 172.8 233.28 
L 216 302.4 
" clip-path="url(#ped34bdc755)" style="fill: none; stroke: #e9ecff; stroke-opacity: 0.85; stroke-width: 0.028; stroke-linecap: round"/>
   </g>
   <g id="line2d_7">
    <path d="M 259.2 233.28 
L 216 302.4 
" clip-path="url(#ped34bdc755)" style="fill: none; stroke: #e9ecff; stroke-opacity: 0.85; stroke-width: 0.028; stroke-linecap: round"/>
   </g>
   <g id="line2d_8">
    <path d="M 315.36 254.88 
L 341.28 280.8 
" clip-path="url(#ped34bdc755)" style="fill: none; stroke: #e9ecff; stroke-width: 0.0196; stroke-linecap: round"/>
   </g>
   <g id="line2d_9">
    <path d="M 311.04 289.44 
L 345.6 289.44 
" clip-path="url(#ped34bdc755)" style="fill: none; stroke: #e9ecff; stroke-opacity: 0.85; stroke-width: 0.0196; stroke-linecap: round"/>
   </g>
  </g>
 </g>
 <defs>
  <clipPath id="ped34bdc755">
   <rect x="0" y="0" width="432" height="432"/>
  </clipPath>
 </defs>
</svg>
