<?xml version="1.0" encoding="utf-8" standalone="no"?>
<!DOCTYPE svg PUBLIC "-//W3C//DTD SVG 1.1//EN"
  "http://www.w3.org/Graphics/SVG/1.1/DTD/svg11.dtd">
<svg xmlns:xlink="http://www.w3.org/1999/xlink" width="864pt" height="288pt" viewBox="0 0 864 288" xmlns="http://www.w3.org/2000/svg" version="1.1">
 <metadata>
  <rdf:RDF xmlns:dc="http://purl.org/dc/elements/1.1/" xmlns:cc="http://creativecommons.org/ns#" xmlns:rdf="http://www.w3.org/1999/02/22-rdf-syntax-ns#">
   <cc:Work>
    <dc:type rdf:resource="http://purl.org/dc/dcmitype/StillImage"/>
    <dc:date>2026-02-15T12:02:16.110610</dc:date>
    <dc:format>image/svg+xml</dc:format>
    <dc:creator>
     <cc:Agent>
      <dc:title>Matplotlib v3.7.5, https://matplotlib.org/</dc:title>
     </cc:Agent>
    </dc:creator>
   </cc:Work>
  </rdf:RDF>
 </metadata>
 <defs>
  <style type="text/css">*{stroke-linejoin: round; stroke-linecap: butt}</style>
 </defs>
 <g id="figure_1">
  <g id="patch_1">
   <path d="M 0 288 
L 864 288 
L 864 0 
L 0 0 
L 0 288 
z
" style="fill: none"/>
  </g>
  <g id="axes_1">
   <g id="patch_2">
    <path d="M 53.491968 240.9984 
L 205.708032 240.9984 
Q 213.2352 240.9984 213.2352 238.489344 
L 213.2352 187.750656 
Q 213.2352 185.2416 205.708032 185.2416 
L 53.491968 185.2416 
Q 45.9648 185.2416 45.9648 187.750656 
L 45.9648 238.489344 
Q 45.9648 240.9984 53.491968 240.9984 
z
" clip-path="url(#pb997febc20)" style="fill: #0b1020"/>
   </g>
   <g id="patch_3">
    <path d="M 129.6 213.12 
C 136.657373 213.12 143.426644 212.185359 148.41696 210.52192 
C 153.407276 208.858481 156.2112 206.602058 156.2112 204.2496 
C 156.2112 201.897142 153.407276 199.640719 148.41696 197.97728 
C 143.426644 196.313841 136.657373 195.3792 129.6 195.3792 
C 122.542627 195.3792 115.773356 196.313841 110.78304 197.97728 
C 105.792724 199.640719 102.9888 201.897142 102.9888 204.2496 
C 102.9888 206.602058 105.792724 208.858481 110.78304 210.52192 
C 115.773356 212.185359 122.542627 213.12 129.6 213.12 
z
" clip-path="url(#pb997febc20)" style="fill: #f2c28b; stroke: #e9ecff; stroke-width: 0.00616; stroke-linejoin: miter"/>
   </g>
   <g id="patch_4">
    <path d="M 121.9968 205.5168 
C 125.021388 205.5168 127.922505 205.183 130.061211 204.588914 
C 132.199918 203.994829 133.4016 203.188963 133.4016 202.3488 
C 133.4016 201.508637 132.199918 200.702771 130.061211 200.108686 
C 127.922505 199.5146 125.021388 199.1808 121.9968 199.1808 
C 118.972212 199.1808 116.071095 199.5146 113.932389 200.108686 
C 111.793682 200.702771 110.592 201.508637 110.592 202.3488 
C 110.592 203.188963 111.793682 203.994829 113.932389 204.588914 
C 116.071095 205.183 118.972212 205.5168 121.9968 205.5168 
z
" clip-path="url(#pb997febc20)" style="fill: #ffffff; fill-opacity: 0.12"/>
   </g>
   <g id="patch_5">
    <path d="M 135.3024 210.5856 
C 139.839282 210.5856 144.190957 210.185039 147.399017 209.472137 
C 150.607077 208.759235 152.4096 207.792196 152.4096 206.784 
C 152.4096 205.775804 150.607077 204.808765 147.399017 204.095863 
C 144.190957 203.382961 139.839282 202.9824 135.3024 202.9824 
C 130.765518 202.9824 126.413843 203.382961 123.205783 204.095863 
C 119.997723 204.808765 118.1952 205.775804 118.1952 206.784 
C 118.1952 207.792196 119.997723 208.759235 123.205783 209.472137 
C 126.413843 210.185039 130.765518 210.5856 135.3024 210.5856 
z
" clip-path="url(#pb997febc20)" style="fill-opacity: 0.08"/>
   </g>
   <g id="patch_6">
    <path d="M 102.9888 206.1504 
C 103.996996 206.1504 104.964035 205.95012 105.676937 205.593669 
C 106.389839 205.237217 106.7904 204.753698 106.7904 204.2496 
C 106.7904 203.745502 106.389839 203.261983 105.676937 202.905531 
C 104.964035 202.54908 103.996996 202.3488 102.9888 202.3488 
C 101.980604 202.3488 101.013565 202.54908 100.300663 202.905531 
C 99.587761 203.261983 99.1872 203.745502 99.1872 204.2496 
C 99.1872 204.753698 99.587761 205.237217 100.300663 205.593669 
C 101.013565 205.95012 101.980604 206.1504 102.9888 206.1504 
z
" clip-path="url(#pb997febc20)" style="fill: #f2c28b; stroke: #e9ecff; stroke-width: 0.004928; stroke-linejoin: miter"/>
   </g>
   <g id="patch_7">
    <path d="M 156.2112 206.1504 
C 157.219396 206.1504 158.186435 205.95012 158.899337 205.593669 
C 159.612239 205.237217 160.0128 204.753698 160.0128 204.2496 
C 160.0128 203.745502 159.612239 203.261983 158.899337 202.905531 
C 158.186435 202.54908 157.219396 202.3488 156.2112 202.3488 
C 155.203004 202.3488 154.235965 202.54908 153.523063 202.905531 
C 152.810161 203.261983 152.4096 203.745502 152.4096 204.2496 
C 152.4096 204.753698 152.810161 205.237217 153.523063 205.593669 
C 154.235965 205.95012 155.203004 206.1504 156.2112 206.1504 
z
" clip-path="url(#pb997febc20)" style="fill: #f2c28b; stroke: #e9ecff; stroke-width: 0.004928; stroke-linejoin: miter"/>
   </g>
   <g id="patch_8">
    <path d="M 104.8896 201.0816 
Q 110.592 194.112 129.6 192.2112 
Q 148.608 194.112 154.3104 201.0816 
Q 150.5088 198.5472 139.104 196.6464 
Q 129.6 196.0128 120.096 196.6464 
Q 108.6912 198.5472 0.1214 0.3018 
" clip-path="url(#pb997febc20)" style="fill: #2b2f43; stroke: #e9ecff; stroke-width: 0.004312; stroke-linejoin: miter"/>
   </g>
   <g id="patch_9">
    <path d="M 121.9968 199.1808 
C 126.533682 199.1808 130.885357 198.847 134.093417 198.252914 
C 137.301477 197.658829 139.104 196.852963 139.104 196.0128 
C 139.104 195.172637 137.301477 194.366771 134.093417 193.772686 
C 130.885357 193.1786 126.533682 192.8448 121.9968 192.8448 
C 117.459918 192.8448 113.108243 193.1786 109.900183 193.772686 
C 106.692123 194.366771 104.8896 195.172637 104.8896 196.0128 
C 104.8896 196.852963 106.692123 197.658829 109.900183 198.252914 
C 113.108243 198.847 117.459918 199.1808 121.9968 199.1808 
z
" clip-path="url(#pb997febc20)" style="fill: #ffffff; fill-opacity: 0.1"/>
   </g>
   <g id="patch_10">
    <path d="M 121.9968 204.5664 
C 122.500898 204.5664 122.984417 204.49964 123.340869 204.380823 
C 123.69732 204.262006 123.8976 204.100833 123.8976 203.9328 
C 123.8976 203.764767 123.69732 203.603594 123.340869 203.484777 
C 122.984417 203.36596 122.500898 203.2992 121.9968 203.2992 
C 121.492702 203.2992 121.009183 203.36596 120.652731 203.484777 
C 120.29628 203.603594 120.096 203.764767 120.096 203.9328 
C 120.096 204.100833 120.29628 204.262006 120.652731 204.380823 
C 121.009183 204.49964 121.492702 204.5664 121.9968 204.5664 
z
" clip-path="url(#pb997febc20)" style="fill: #2b2f43"/>
   </g>
   <g id="patch_11">
    <path d="M 137.2032 204.5664 
C 137.707298 204.5664 138.190817 204.49964 138.547269 204.380823 
C 138.90372 204.262006 139.104 204.100833 139.104 203.9328 
C 139.104 203.764767 138.90372 203.603594 138.547269 203.484777 
C 138.190817 203.36596 137.707298 203.2992 137.2032 203.2992 
C 136.699102 203.2992 136.215583 203.36596 135.859131 203.484777 
C 135.50268 203.603594 135.3024 203.764767 135.3024 203.9328 
C 135.3024 204.100833 135.50268 204.262006 135.859131 204.380823 
C 136.215583 204.49964 136.699102 204.5664 137.2032 204.5664 
z
" clip-path="url(#pb997febc20)" style="fill: #2b2f43"/>
   </g>
   <g id="patch_12">
    <path d="M 121.9968 207.1008 
C 124.51729 207.1008 126.934887 206.767 128.717143 206.172914 
C 130.499399 205.578829 131.5008 204.772963 131.5008 203.9328 
C 131.5008 203.092637 130.499399 202.286771 128.717143 201.692686 
C 126.934887 201.0986 124.51729 200.7648 121.9968 200.7648 
C 119.47631 200.7648 117.058713 201.0986 115.276457 201.692686 
C 113.494201 202.286771 112.4928 203.092637 112.4928 203.9328 
C 112.4928 204.772963 113.494201 205.578829 115.276457 206.172914 
C 117.058713 206.767 119.47631 207.1008 121.9968 207.1008 
L 121.9968 207.1008 
z
" clip-path="url(#pb997febc20)" style="fill: none; stroke: #e9ecff; stroke-width: 0.005544; stroke-linejoin: miter"/>
   </g>
   <g id="patch_13">
    <path d="M 137.2032 207.1008 
C 139.72369 207.1008 142.141287 206.767 143.923543 206.172914 
C 145.705799 205.578829 146.7072 204.772963 146.7072 203.9328 
C 146.7072 203.092637 145.705799 202.286771 143.923543 201.692686 
C 142.141287 201.0986 139.72369 200.7648 137.2032 200.7648 
C 134.68271 200.7648 132.265113 201.0986 130.482857 201.692686 
C 128.700601 202.286771 127.6992 203.092637 127.6992 203.9328 
C 127.6992 204.772963 128.700601 205.578829 130.482857 206.172914 
C 132.265113 206.767 134.68271 207.1008 137.2032 207.1008 
L 137.2032 207.1008 
z
" clip-path="url(#pb997febc20)" style="fill: none; stroke: #e9ecff; stroke-width: 0.005544; stroke-linejoin: miter"/>
   </g>
   <g id="patch_14">
    <path d="M 117.1584 218.5344 
L 142.0416 218.5344 
Q 145.8432 218.5344 145.8432 217.2672 
L 145.8432 210.24 
Q 145.8432 208.9728 142.0416 208.9728 
L 117.1584 208.9728 
Q 113.3568 208.9728 113.3568 210.24 
L 113.3568 217.2672 
Q 113.3568 218.5344 117.1584 218.5344 
z
" clip-path="url(#pb997febc20)" style="fill: #e8ae73; stroke: #e9ecff; stroke-width: 0.004312; stroke-linejoin: miter"/>
   </g>
   <g id="patch_15">
    <path d="M 73.2672 239.5008 
L 185.9328 239.5008 
Q 204.9408 239.5008 204.9408 233.1648 
L 204.9408 212.0832 
Q 204.9408 205.7472 185.9328 205.7472 
L 73.2672 205.7472 
Q 54.2592 205.7472 54.2592 212.0832 
L 54.2592 233.1648 
Q 54.2592 239.5008 73.2672 239.5008 
z
" clip-path="url(#pb997febc20)" style="fill: #121b36; stroke: #e9ecff; stroke-width: 0.00616; stroke-linejoin: miter"/>
   </g>
   <g id="patch_16">
    <path d="M 106.7904 228.3264 
C 115.612116 228.3264 124.073705 227.658799 130.3116 226.470629 
C 136.549495 225.282458 140.0544 223.670727 140.0544 221.9904 
C 140.0544 220.310073 136.549495 218.698342 130.3116 217.510171 
C 124.073705 216.322001 115.612116 215.6544 106.7904 215.6544 
C 97.968684 215.6544 89.507095 216.322001 83.2692 217.510171 
C 77.031305 218.698342 73.5264 220.310073 73.5264 221.9904 
C 73.5264 223.670727 77.031305 225.282458 83.2692 226.470629 
C 89.507095 227.658799 97.968684 228.3264 106.7904 228.3264 
z
" clip-path="url(#pb997febc20)" style="fill: #ffffff; fill-opacity: 0.07"/>
   </g>
   <g id="patch_17">
    <path d="M 129.6 215.6544 
L 114.3936 216.9216 
L 129.6 227.0592 
L 144.8064 216.9216 
z
" clip-path="url(#pb997febc20)" style="fill: #e9ecff; opacity: 0.22"/>
   </g>
   <g id="patch_18">
    <path d="M 129.6 218.1888 
L 123.8976 223.2576 
L 129.6 230.8608 
L 135.3024 223.2576 
z
" clip-path="url(#pb997febc20)" style="fill: #2ee59d; opacity: 0.95"/>
   </g>
   <g id="patch_19">
    <path d="M 129.6 219.58272 
C 130.204918 219.58272 130.785141 219.502608 131.212882 219.360027 
C 131.640624 219.217447 131.88096 219.024039 131.88096 218.8224 
C 131.88096 218.620761 131.640624 218.427353 131.212882 218.284773 
C 130.785141 218.142192 130.204918 218.06208 129.6 218.06208 
C 128.995082 218.06208 128.414859 218.142192 127.987118 218.284773 
C 127.559376 218.427353 127.31904 218.620761 127.31904 218.8224 
C 127.31904 219.024039 127.559376 219.217447 127.987118 219.360027 
C 128.414859 219.502608 128.995082 219.58272 129.6 219.58272 
z
" clip-path="url(#pb997febc20)" style="fill: #ffffff; fill-opacity: 0.35"/>
   </g>
   <g id="patch_20">
    <path d="M 177.12 223.8912 
C 180.648686 223.8912 184.033322 223.423879 186.52848 222.59216 
C 189.023638 221.760441 190.4256 220.632229 190.4256 219.456 
C 190.4256 218.279771 189.023638 217.151559 186.52848 216.31984 
C 184.033322 215.488121 180.648686 215.0208 177.12 215.0208 
C 173.591314 215.0208 170.206678 215.488121 167.71152 216.31984 
C 165.216362 217.151559 163.8144 218.279771 163.8144 219.456 
C 163.8144 220.632229 165.216362 221.760441 167.71152 222.59216 
C 170.206678 223.423879 173.591314 223.8912 177.12 223.8912 
z
" clip-path="url(#pb997febc20)" style="fill: #2ee59d; fill-opacity: 0.12; stroke: #ffffff; stroke-opacity: 0.1; stroke-width: 0.003696; stroke-linejoin: miter"/>
   </g>
   <g id="patch_21">
    <path d="M 174.1824 224.8704 
L 197.1648 224.8704 
Q 199.0656 224.8704 199.0656 224.2368 
L 199.0656 218.16 
Q 199.0656 217.5264 197.1648 217.5264 
L 174.1824 217.5264 
Q 172.2816 217.5264 172.2816 218.16 
L 172.2816 224.2368 
Q 172.2816 224.8704 174.1824 224.8704 
z
" clip-path="url(#pb997febc20)" style="fill: #e9ecff; opacity: 0.85"/>
   </g>
   <g id="line2d_1">
    <path d="M 128.6496 203.9328 
L 130.5504 203.9328 
" clip-path="url(#pb997febc20)" style="fill: none; stroke: #e9ecff; stroke-width: 0.004928; stroke-linecap: round"/>
   </g>
   <g id="line2d_2">
    <path d="M 116.2944 201.0816 
L 127.6992 200.7648 
" clip-path="url(#pb997febc20)" style="fill: none; stroke: #39405c; stroke-opacity: 0.8; stroke-width: 0.005544; stroke-linecap: round"/>
   </g>
   <g id="line2d_3">
    <path d="M 131.5008 200.7648 
L 142.9056 201.0816 
" clip-path="url(#pb997febc20)" style="fill: none; stroke: #39405c; stroke-opacity: 0.8; stroke-width: 0.005544; stroke-linecap: round"/>
   </g>
   <g id="line2d_4">
    <path d="M 132.4512 205.5168 
L 130.5504 206.784 
" clip-path="url(#pb997febc20)" style="fill: none; stroke: #000000; stroke-opacity: 0.18; stroke-width: 0.005544; stroke-linecap: round"/>
   </g>
   <g id="line2d_5">
    <path d="M 123.8976 208.6848 
L 135.3024 209.0016 
" clip-path="url(#pb997febc20)" style="fill: none; stroke: #d48e7b; stroke-opacity: 0.85; stroke-width: 0.006776; stroke-linecap: round"/>
   </g>
   <g id="line2d_6">
    <path d="M 110.592 215.6544 
L 129.6 225.792 
" clip-path="url(#pb997febc20)" style="fill: none; stroke: #e9ecff; stroke-opacity: 0.85; stroke-width: 0.00616; stroke-linecap: round"/>
   </g>
   <g id="line2d_7">
    <path d="M 148.608 215.6544 
L 129.6 225.792 
" clip-path="url(#pb997febc20)" style="fill: none; stroke: #e9ecff; stroke-opacity: 0.85; stroke-width: 0.00616; stroke-linecap: round"/>
   </g>
   <g id="line2d_8">
    <path d="M 173.3184 218.8224 
L 184.7232 222.624 
" clip-path="url(#pb997febc20)" style="fill: none; stroke: #e9ecff; stroke-width: 0.004312; stroke-linecap: round"/>
   </g>
   <g id="line2d_9">
    <path d="M 171.4176 223.8912 
L 186.624 223.8912 
" clip-path="url(#pb997febc20)" style="fill: none; stroke: #e9ecff; stroke-opacity: 0.85; stroke-width: 0.004312; stroke-linecap: round"/>
   </g>
   <g id="line2d_10">
    <path d="M 259.2 204.48 
L 449.28 204.48 
" clip-path="url(#pb997febc20)" style="fill: none; stroke: #2ee59d; stroke-width: 6; stroke-linecap: round"/>
   </g>
   <g id="text_1">
    <!-- Avukatım -->
    <g style="fill: #e9ecff" transform="translate(259.2 144.38) scale(0.64 -0.64)">
     <defs>
      <path id="DejaVuSans-Bold-41" d="M 3419 850 
L 1538 850 
L 1241 0 
L 31 0 
L 1759 4666 
L 3194 4666 
L 4922 0 
L 3713 0 
L 3419 850 
z
M 1838 1716 
L 3116 1716 
L 2478 3572 
L 1838 1716 
z
" transform="scale(0.015625)"/>
      <path id="DejaVuSans-Bold-76" d="M 97 3500 
L 1216 3500 
L 2088 1081 
L 2956 3500 
L 4078 3500 
L 2700 0 
L 1472 0 
L 97 3500 
z
" transform="scale(0.015625)"/>
      <path id="DejaVuSans-Bold-75" d="M 500 1363 
L 500 3500 
L 1625 3500 
L 1625 3150 
Q 1625 2866 1622 2436 
Q 1619 2006 1619 1863 
Q 1619 1441 1641 1255 
Q 1663 1069 1716 984 
Q 1784 875 1895 815 
Q 2006 756 2150 756 
Q 2500 756 2700 1025 
Q 2900 1294 2900 1772 
L 2900 3500 
L 4019 3500 
L 4019 0 
L 2900 0 
L 2900 506 
Q 2647 200 2364 54 
Q 2081 -91 1741 -91 
Q 1134 -91 817 281 
Q 500 653 500 1363 
z
" transform="scale(0.015625)"/>
      <path id="DejaVuSans-Bold-6b" d="M 538 4863 
L 1656 4863 
L 1656 2216 
L 2944 3500 
L 4244 3500 
L 2534 1894 
L 4378 0 
L 3022 0 
L 1656 1459 
L 1656 0 
L 538 0 
L 538 4863 
z
" transform="scale(0.015625)"/>
      <path id="DejaVuSans-Bold-61" d="M 2106 1575 
Q 1756 1575 1579 1456 
Q 1403 1338 1403 1106 
Q 1403 894 1545 773 
Q 1688 653 1941 653 
Q 2256 653 2472 879 
Q 2688 1106 2688 1447 
L 2688 1575 
L 2106 1575 
z
M 3816 1997 
L 3816 0 
L 2688 0 
L 2688 519 
Q 2463 200 2181 54 
Q 1900 -91 1497 -91 
Q 953 -91 614 226 
Q 275 544 275 1050 
Q 275 1666 698 1953 
Q 1122 2241 2028 2241 
L 2688 2241 
L 2688 2328 
Q 2688 2594 2478 2717 
Q 2269 2841 1825 2841 
Q 1466 2841 1156 2769 
Q 847 2697 581 2553 
L 581 3406 
Q 941 3494 1303 3539 
Q 1666 3584 2028 3584 
Q 2975 3584 3395 3211 
Q 3816 2838 3816 1997 
z
" transform="scale(0.015625)"/>
      <path id="DejaVuSans-Bold-74" d="M 1759 4494 
L 1759 3500 
L 2913 3500 
L 2913 2700 
L 1759 2700 
L 1759 1216 
Q 1759 972 1856 886 
Q 1953 800 2241 800 
L 2816 800 
L 2816 0 
L 1856 0 
Q 1194 0 917 276 
Q 641 553 641 1216 
L 641 2700 
L 84 2700 
L 84 3500 
L 641 3500 
L 641 4494 
L 1759 4494 
z
" transform="scale(0.015625)"/>
      <path id="DejaVuSans-Bold-131" d="M 538 3500 
L 1656 3500 
L 1656 0 
L 538 0 
L 538 3500 
z
" transform="scale(0.015625)"/>
      <path id="DejaVuSans-Bold-6d" d="M 3781 2919 
Q 3994 3244 4286 3414 
Q 4578 3584 4928 3584 
Q 5531 3584 5847 3212 
Q 6163 2841 6163 2131 
L 6163 0 
L 5038 0 
L 5038 1825 
Q 5041 1866 5042 1909 
Q 5044 1953 5044 2034 
Q 5044 2406 4934 2573 
Q 4825 2741 4581 2741 
Q 4263 2741 4089 2478 
Q 3916 2216 3909 1719 
L 3909 0 
L 2784 0 
L 2784 1825 
Q 2784 2406 2684 2573 
Q 2584 2741 2328 2741 
Q 2006 2741 1831 2477 
Q 1656 2213 1656 1722 
L 1656 0 
L 531 0 
L 531 3500 
L 1656 3500 
L 1656 2988 
Q 1863 3284 2130 3434 
Q 2397 3584 2719 3584 
Q 3081 3584 3359 3409 
Q 3638 3234 3781 2919 
z
" transform="scale(0.015625)"/>
     </defs>
     <use xlink:href="#DejaVuSans-Bold-41"/>
     <use xlink:href="#DejaVuSans-Bold-76" x="73.767578"/>
     <use xlink:href="#DejaVuSans-Bold-75" x="138.953125"/>
     <use xlink:href="#DejaVuSans-Bold-6b" x="210.144531"/>
     <use xlink:href="#DejaVuSans-Bold-61" x="276.648438"/>
     <use xlink:href="#DejaVuSans-Bold-74" x="344.128906"/>
     <use xlink:href="#DejaVuSans-Bold-131" x="391.931641"/>
     <use xlink:href="#DejaVuSans-Bold-6d" x="426.208984"/>
    </g>
   </g>
   <g id="text_2">
    <!-- Sözleşme risklerini anında gör -->
    <g style="fill: #ebedff; opacity: 0.65" transform="translate(259.2 187.510625) scale(0.22 -0.22)">
     <defs>
      <path id="DejaVuSans-53" d="M 3425 4513 
L 3425 3897 
Q 3066 4069 2747 4153 
Q 2428 4238 2131 4238 
Q 1616 4238 1336 4038 
Q 1056 3838 1056 3469 
Q 1056 3159 1242 3001 
Q 1428 2844 1947 2747 
L 2328 2669 
Q 3034 2534 3370 2195 
Q 3706 1856 3706 1288 
Q 3706 609 3251 259 
Q 2797 -91 1919 -91 
Q 1588 -91 1214 -16 
Q 841 59 441 206 
L 441 856 
Q 825 641 1194 531 
Q 1563 422 1919 422 
Q 2459 422 2753 634 
Q 3047 847 3047 1241 
Q 3047 1584 2836 1778 
Q 2625 1972 2144 2069 
L 1759 2144 
Q 1053 2284 737 2584 
Q 422 2884 422 3419 
Q 422 4038 858 4394 
Q 1294 4750 2059 4750 
Q 2388 4750 2728 4690 
Q 3069 4631 3425 4513 
z
" transform="scale(0.015625)"/>
      <path id="DejaVuSans-f6" d="M 1959 3097 
Q 1497 3097 1228 2736 
Q 959 2375 959 1747 
Q 959 1119 1226 758 
Q 1494 397 1959 397 
Q 2419 397 2687 759 
Q 2956 1122 2956 1747 
Q 2956 2369 2687 2733 
Q 2419 3097 1959 3097 
z
M 1959 3584 
Q 2709 3584 3137 3096 
Q 3566 2609 3566 1747 
Q 3566 888 3137 398 
Q 2709 -91 1959 -91 
Q 1206 -91 779 398 
Q 353 888 353 1747 
Q 353 2609 779 3096 
Q 1206 3584 1959 3584 
z
M 2254 4850 
L 2888 4850 
L 2888 4219 
L 2254 4219 
L 2254 4850 
z
M 1032 4850 
L 1666 4850 
L 1666 4219 
L 1032 4219 
L 1032 4850 
z
" transform="scale(0.015625)"/>
      <path id="DejaVuSans-7a" d="M 353 3500 
L 3084 3500 
L 3084 2975 
L 922 459 
L 3084 459 
L 3084 0 
L 275 0 
L 275 525 
L 2438 3041 
L 353 3041 
L 353 3500 
z
" transform="scale(0.015625)"/>
      <path id="DejaVuSans-6c" d="M 603 4863 
L 1178 4863 
L 1178 0 
L 603 0 
L 603 4863 
z
" transform="scale(0.015625)"/>
      <path id="DejaVuSans-65" d="M 3597 1894 
L 3597 1613 
L 953 1613 
Q 991 1019 1311 708 
Q 1631 397 2203 397 
Q 2534 397 2845 478 
Q 3156 559 3463 722 
L 3463 178 
Q 3153 47 2828 -22 
Q 2503 -91 2169 -91 
Q 1331 -91 842 396 
Q 353 884 353 1716 
Q 353 2575 817 3079 
Q 1281 3584 2069 3584 
Q 2775 3584 3186 3129 
Q 3597 2675 3597 1894 
z
M 3022 2063 
Q 3016 2534 2758 2815 
Q 2500 3097 2075 3097 
Q 1594 3097 1305 2825 
Q 1016 2553 972 2059 
L 3022 2063 
z
" transform="scale(0.015625)"/>
      <path id="DejaVuSans-15f" d="M 2834 3397 
L 2834 2853 
Q 2591 2978 2328 3040 
Q 2066 3103 1784 3103 
Q 1356 3103 1142 2972 
Q 928 2841 928 2578 
Q 928 2378 1081 2264 
Q 1234 2150 1697 2047 
L 1894 2003 
Q 2506 1872 2764 1633 
Q 3022 1394 3022 966 
Q 3022 478 2636 193 
Q 2250 -91 1575 -91 
Q 1294 -91 989 -36 
Q 684 19 347 128 
L 347 722 
Q 666 556 975 473 
Q 1284 391 1588 391 
Q 1994 391 2212 530 
Q 2431 669 2431 922 
Q 2431 1156 2273 1281 
Q 2116 1406 1581 1522 
L 1381 1569 
Q 847 1681 609 1914 
Q 372 2147 372 2553 
Q 372 3047 722 3315 
Q 1072 3584 1716 3584 
Q 2034 3584 2315 3537 
Q 2597 3491 2834 3397 
z
M 1935 0 
Q 2106 -194 2190 -358 
Q 2275 -522 2275 -672 
Q 2275 -950 2087 -1092 
Q 1900 -1234 1531 -1234 
Q 1388 -1234 1252 -1215 
Q 1116 -1197 981 -1159 
L 981 -750 
Q 1088 -803 1203 -826 
Q 1319 -850 1466 -850 
Q 1650 -850 1744 -775 
Q 1838 -700 1838 -556 
Q 1838 -463 1770 -327 
Q 1703 -191 1563 0 
L 1935 0 
z
" transform="scale(0.015625)"/>
      <path id="DejaVuSans-6d" d="M 3328 2828 
Q 3544 3216 3844 3400 
Q 4144 3584 4550 3584 
Q 5097 3584 5394 3201 
Q 5691 2819 5691 2113 
L 5691 0 
L 5113 0 
L 5113 2094 
Q 5113 2597 4934 2840 
Q 4756 3084 4391 3084 
Q 3944 3084 3684 2787 
Q 3425 2491 3425 1978 
L 3425 0 
L 2847 0 
L 2847 2094 
Q 2847 2600 2669 2842 
Q 2491 3084 2119 3084 
Q 1678 3084 1418 2786 
Q 1159 2488 1159 1978 
L 1159 0 
L 581 0 
L 581 3500 
L 1159 3500 
L 1159 2956 
Q 1356 3278 1631 3431 
Q 1906 3584 2284 3584 
Q 2666 3584 2933 3390 
Q 3200 3197 3328 2828 
z
" transform="scale(0.015625)"/>
      <path id="DejaVuSans-20" transform="scale(0.015625)"/>
      <path id="DejaVuSans-72" d="M 2631 2963 
Q 2534 3019 2420 3045 
Q 2306 3072 2169 3072 
Q 1681 3072 1420 2755 
Q 1159 2438 1159 1844 
L 1159 0 
L 581 0 
L 581 3500 
L 1159 3500 
L 1159 2956 
Q 1341 3275 1631 3429 
Q 1922 3584 2338 3584 
Q 2397 3584 2469 3576 
Q 2541 3569 2628 3553 
L 2631 2963 
z
" transform="scale(0.015625)"/>
      <path id="DejaVuSans-69" d="M 603 3500 
L 1178 3500 
L 1178 0 
L 603 0 
L 603 3500 
z
M 603 4863 
L 1178 4863 
L 1178 4134 
L 603 4134 
L 603 4863 
z
" transform="scale(0.015625)"/>
      <path id="DejaVuSans-73" d="M 2834 3397 
L 2834 2853 
Q 2591 2978 2328 3040 
Q 2066 3103 1784 3103 
Q 1356 3103 1142 2972 
Q 928 2841 928 2578 
Q 928 2378 1081 2264 
Q 1234 2150 1697 2047 
L 1894 2003 
Q 2506 1872 2764 1633 
Q 3022 1394 3022 966 
Q 3022 478 2636 193 
Q 2250 -91 1575 -91 
Q 1294 -91 989 -36 
Q 684 19 347 128 
L 347 722 
Q 666 556 975 473 
Q 1284 391 1588 391 
Q 1994 391 2212 530 
Q 2431 669 2431 922 
Q 2431 1156 2273 1281 
Q 2116 1406 1581 1522 
L 1381 1569 
Q 847 1681 609 1914 
Q 372 2147 372 2553 
Q 372 3047 722 3315 
Q 1072 3584 1716 3584 
Q 2034 3584 2315 3537 
Q 2597 3491 2834 3397 
z
" transform="scale(0.015625)"/>
      <path id="DejaVuSans-6b" d="M 581 4863 
L 1159 4863 
L 1159 1991 
L 2875 3500 
L 3609 3500 
L 1753 1863 
L 3688 0 
L 2938 0 
L 1159 1709 
L 1159 0 
L 581 0 
L 581 4863 
z
" transform="scale(0.015625)"/>
      <path id="DejaVuSans-6e" d="M 3513 2113 
L 3513 0 
L 2938 0 
L 2938 2094 
Q 2938 2591 2744 2837 
Q 2550 3084 2163 3084 
Q 1697 3084 1428 2787 
Q 1159 2491 1159 1978 
L 1159 0 
L 581 0 
L 581 3500 
L 1159 3500 
L 1159 2956 
Q 1366 3272 1645 3428 
Q 1925 3584 2291 3584 
Q 2894 3584 3203 3211 
Q 3513 2838 3513 2113 
z
" transform="scale(0.015625)"/>
      <path id="DejaVuSans-61" d="M 2194 1759 
Q 1497 1759 1228 1600 
Q 959 1441 959 1056 
Q 959 750 1161 570 
Q 1363 391 1709 391 
Q 2188 391 2477 730 
Q 2766 1069 2766 1631 
L 2766 1759 
L 2194 1759 
z
M 3341 1997 
L 3341 0 
L 2766 0 
L 2766 531 
Q 2569 213 2275 61 
Q 1981 -91 1556 -91 
Q 1019 -91 701 211 
Q 384 513 384 1019 
Q 384 1609 779 1909 
Q 1175 2209 1959 2209 
L 2766 2209 
L 2766 2266 
Q 2766 2663 2505 2880 
Q 2244 3097 1772 3097 
Q 1472 3097 1187 3025 
Q 903 2953 641 2809 
L 641 3341 
Q 956 3463 1253 3523 
Q 1550 3584 1831 3584 
Q 2591 3584 2966 3190 
Q 3341 2797 3341 1997 
z
" transform="scale(0.015625)"/>
      <path id="DejaVuSans-131" d="M 603 3500 
L 1178 3500 
L 1178 0 
L 603 0 
L 603 3500 
z
M 891 3584 
L 891 3584 
z
" transform="scale(0.015625)"/>
      <path id="DejaVuSans-64" d="M 2906 2969 
L 2906 4863 
L 3481 4863 
L 3481 0 
L 2906 0 
L 2906 525 
Q 2725 213 2448 61 
Q 2172 -91 1784 -91 
Q 1150 -91 751 415 
Q 353 922 353 1747 
Q 353 2572 751 3078 
Q 1150 3584 1784 3584 
Q 2172 3584 2448 3432 
Q 2725 3281 2906 2969 
z
M 947 1747 
Q 947 1113 1208 752 
Q 1469 391 1925 391 
Q 2381 391 2643 752 
Q 2906 1113 2906 1747 
Q 2906 2381 2643 2742 
Q 2381 3103 1925 3103 
Q 1469 3103 1208 2742 
Q 947 2381 947 1747 
z
" transform="scale(0.015625)"/>
      <path id="DejaVuSans-67" d="M 2906 1791 
Q 2906 2416 2648 2759 
Q 2391 3103 1925 3103 
Q 1463 3103 1205 2759 
Q 947 2416 947 1791 
Q 947 1169 1205 825 
Q 1463 481 1925 481 
Q 2391 481 2648 825 
Q 2906 1169 2906 1791 
z
M 3481 434 
Q 3481 -459 3084 -895 
Q 2688 -1331 1869 -1331 
Q 1566 -1331 1297 -1286 
Q 1028 -1241 775 -1147 
L 775 -588 
Q 1028 -725 1275 -790 
Q 1522 -856 1778 -856 
Q 2344 -856 2625 -561 
Q 2906 -266 2906 331 
L 2906 616 
Q 2728 306 2450 153 
Q 2172 0 1784 0 
Q 1141 0 747 490 
Q 353 981 353 1791 
Q 353 2603 747 3093 
Q 1141 3584 1784 3584 
Q 2172 3584 2450 3431 
Q 2728 3278 2906 2969 
L 2906 3500 
L 3481 3500 
L 3481 434 
z
" transform="scale(0.015625)"/>
     </defs>
     <use xlink:href="#DejaVuSans-53"/>
     <use xlink:href="#DejaVuSans-f6" x="63.476562"/>
     <use xlink:href="#DejaVuSans-7a" x="124.658203"/>
     <use xlink:href="#DejaVuSans-6c" x="177.148438"/>
     <use xlink:href="#DejaVuSans-65" x="204.931641"/>
     <use xlink:href="#DejaVuSans-15f" x="266.455078"/>
     <use xlink:href="#DejaVuSans-6d" x="318.554688"/>
     <use xlink:href="#DejaVuSans-65" x="415.966797"/>
     <use xlink:href="#DejaVuSans-20" x="477.490234"/>
     <use xlink:href="#DejaVuSans-72" x="509.277344"/>
     <use xlink:href="#DejaVuSans-69" x="550.390625"/>
     <use xlink:href="#DejaVuSans-73" x="578.173828"/>
     <use xlink:href="#DejaVuSans-6b" x="630.273438"/>
     <use xlink:href="#DejaVuSans-6c" x="688.183594"/>
     <use xlink:href="#DejaVuSans-65" x="715.966797"/>
     <use xlink:href="#DejaVuSans-72" x="777.490234"/>
     <use xlink:href="#DejaVuSans-69" x="818.603516"/>
     <use xlink:href="#DejaVuSans-6e" x="846.386719"/>
     <use xlink:href="#DejaVuSans-69" x="909.765625"/>
     <use xlink:href="#DejaVuSans-20" x="937.548828"/>
     <use xlink:href="#DejaVuSans-61" x="969.335938"/>
     <use xlink:href="#DejaVuSans-6e" x="1030.615234"/>
     <use xlink:href="#DejaVuSans-131" x="1093.994141"/>
     <use xlink:href="#DejaVuSans-6e" x="1121.777344"/>
     <use xlink:href="#DejaVuSans-64" x="1185.15625"/>
     <use xlink:href="#DejaVuSans-61" x="1248.632812"/>
     <use xlink:href="#DejaVuSans-20" x="1309.912109"/>
     <use xlink:href="#DejaVuSans-67" x="1341.699219"/>
     <use xlink:href="#DejaVuSans-f6" x="1405.175781"/>
     <use xlink:href="#DejaVuSans-72" x="1466.357422"/>
    </g>
   </g>
  </g>
 </g>
 <defs>
  <clipPath id="pb997febc20">
   <rect x="0" y="0" width="864" height="288"/>
  </clipPath>
 </defs>
</svg>
